<svg width="89" height="90" viewBox="0 0 89 90" fill="none" xmlns="http://www.w3.org/2000/svg">
<rect x="1.5" y="2" width="86" height="86" rx="2" stroke="#DE6262" stroke-width="3"/>
<path d="M58.5936 47.115L51.3035 43.47C54.206 41.22 56.0735 37.71 56.0735 33.75C56.0735 26.9325 50.516 21.375 43.6985 21.375C36.881 21.375 31.3235 26.9325 31.3235 33.75C31.3235 38.5425 34.0685 42.705 38.0735 44.7525V52.0875C33.236 51.0525 33.5285 51.0975 32.9885 51.0975C31.796 51.0975 30.671 51.57 29.816 52.425L26.666 55.62L38.1185 67.0725C39.086 68.0625 40.436 68.625 41.831 68.625H56.0061C58.2111 68.625 60.0785 67.05 60.4385 64.8675L62.2385 54.27C62.7335 51.345 61.271 48.465 58.5936 47.115ZM57.806 53.5275L56.0061 64.125H41.831C41.6285 64.125 41.4485 64.035 41.291 63.9L33.011 55.62L42.5735 57.6225V33.75C42.5735 33.12 43.0685 32.625 43.6985 32.625C44.3285 32.625 44.8235 33.12 44.8235 33.75V47.25H48.7835L56.5686 51.1425C57.4686 51.5925 57.9636 52.56 57.806 53.5275ZM35.8235 33.75C35.8235 29.4075 39.356 25.875 43.6985 25.875C48.041 25.875 51.5735 29.4075 51.5735 33.75C51.5735 35.8875 50.7185 37.8225 49.3235 39.24V33.75C49.3235 30.645 46.8035 28.125 43.6985 28.125C40.5935 28.125 38.0735 30.645 38.0735 33.75V39.24C36.6785 37.8225 35.8235 35.8875 35.8235 33.75Z" fill="#DE6262"/>
</svg>
