<svg width="87" height="88" viewBox="0 0 87 88" fill="none" xmlns="http://www.w3.org/2000/svg">
<rect x="1.5" y="2" width="84" height="84" rx="2" stroke="#25C389" stroke-width="3"/>
<path d="M61.5 28.25H54.3675L50.25 23.75H36.75L32.6325 28.25H25.5C23.025 28.25 21 30.275 21 32.75V59.75C21 62.225 23.025 64.25 25.5 64.25H61.5C63.975 64.25 66 62.225 66 59.75V32.75C66 30.275 63.975 28.25 61.5 28.25ZM61.5 59.75H25.5V32.75H34.6125L38.73 28.25H48.27L52.3875 32.75H61.5V59.75ZM43.5 35C37.29 35 32.25 40.04 32.25 46.25C32.25 52.46 37.29 57.5 43.5 57.5C49.71 57.5 54.75 52.46 54.75 46.25C54.75 40.04 49.71 35 43.5 35ZM43.5 53C39.7875 53 36.75 49.9625 36.75 46.25C36.75 42.5375 39.7875 39.5 43.5 39.5C47.2125 39.5 50.25 42.5375 50.25 46.25C50.25 49.9625 47.2125 53 43.5 53Z" fill="#25C389"/>
</svg>
