<svg width="89" height="90" viewBox="0 0 89 90" fill="none" xmlns="http://www.w3.org/2000/svg">
<rect x="1.5" y="2" width="86" height="86" rx="2" stroke="#1596BD" stroke-width="3"/>
<path d="M61.6644 41.1092L64.226 38.5475C66.111 36.6625 66.111 33.5933 64.226 31.7083L60.8185 28.3008C58.9335 26.4158 55.8644 26.4158 53.9794 28.3008L51.4177 30.8625L61.6644 41.1092ZM51.4177 44.5408L34.0177 61.9167H30.6102V58.5092L47.986 41.1333L51.4177 44.5408ZM47.986 34.27L25.7769 56.5033V66.75H36.0235L58.2327 44.5408L47.986 34.27ZM62.0269 58.2917C62.0269 63.5842 55.8885 66.75 49.9435 66.75C48.6144 66.75 47.5269 65.6625 47.5269 64.3333C47.5269 63.0042 48.6144 61.9167 49.9435 61.9167C53.6652 61.9167 57.1935 60.1525 57.1935 58.2917C57.1935 57.1558 56.0335 56.1892 54.221 55.3917L57.7977 51.815C60.3835 53.3375 62.0269 55.3675 62.0269 58.2917ZM27.1785 48.2625C24.8344 46.9092 23.3602 45.145 23.3602 42.5833C23.3602 38.2333 27.9277 36.2275 31.9635 34.4633C34.4527 33.3517 37.8602 31.8533 37.8602 30.5C37.8602 29.5092 35.9752 28.0833 33.0269 28.0833C29.9819 28.0833 28.6769 29.5575 28.6044 29.63C27.7585 30.6208 26.236 30.7417 25.221 29.92C24.2302 29.0983 24.0369 27.6242 24.8585 26.585C25.1244 26.2467 27.6135 23.25 33.0269 23.25C38.4402 23.25 42.6935 26.44 42.6935 30.5C42.6935 35.0192 38.0294 37.0733 33.8969 38.8858C31.6252 39.8767 28.1935 41.375 28.1935 42.5833C28.1935 43.3325 29.2327 44.0333 30.7794 44.6617L27.1785 48.2625Z" fill="#1596BD"/>
</svg>
