<svg width="87" height="88" viewBox="0 0 87 88" fill="none" xmlns="http://www.w3.org/2000/svg">
<rect x="1.5" y="2" width="84" height="84" rx="2" stroke="#FEB902" stroke-width="3"/>
<path d="M36 66.5C36 67.875 37.125 69 38.5 69H48.5C49.875 69 51 67.875 51 66.5V64H36V66.5ZM43.5 19C33.85 19 26 26.85 26 36.5C26 42.45 28.975 47.675 33.5 50.85V56.5C33.5 57.875 34.625 59 36 59H51C52.375 59 53.5 57.875 53.5 56.5V50.85C58.025 47.675 61 42.45 61 36.5C61 26.85 53.15 19 43.5 19ZM50.625 46.75L48.5 48.25V54H38.5V48.25L36.375 46.75C33 44.4 31 40.575 31 36.5C31 29.6 36.6 24 43.5 24C50.4 24 56 29.6 56 36.5C56 40.575 54 44.4 50.625 46.75Z" fill="#FFB901"/>
</svg>
